# AST/ASF file generated using VICON BodyLanguage
# -----------------------------------------------
:version 1.10
:name VICON
:units
  mass 1.0
  length 0.45
  angle deg
:documentation
   .ast/.asf automatically generated from VICON data using
   VICON BodyBuilder and BodyLanguage model FoxedUp or BRILLIANT.MOD
:root
   order TX TY TZ RX RY RZ
   axis XYZ
   position 0 0 0  
   orientation 0 0 0 
:bonedata
  begin
     id 1 
     name lhipjoint
     direction 0.577973 -0.728611 0.367523 
     length 2.48544 
     axis 0 0 0  XYZ
  end
  begin
     id 2 
     name lfemur
     direction 0.34202 -0.939693 0  
     length 7.1921  
     axis 0 0 20  XYZ
    dof rx ry rz
    limits (-160.0 20.0)
           (-70.0 70.0)
           (-60.0 70.0)
  end
  begin
     id 3 
     name ltibia
     direction 0.34202 -0.939693 0   
     length 7.71059   
     axis 0 0 20   XYZ
    dof rx
    limits (-10.0 170.0)
  end
  begin
     id 4 
     name lfoot
     direction 0.089538 -0.246004 0.965124   
     length 2.19909   
     axis -90 7.62852e-016 20   XYZ
    dof rx rz
    limits (-45.0 90.0)
           (-70.0 20.0)
  end
  begin
     id 5 
     name ltoes
     direction 1.53544e-011 -4.21829e-011 1   
     length 1.10116   
     axis -90 7.62852e-016 20   XYZ
    dof rx
    limits (-90.0 20.0)
  end
  begin
     id 6 
     name rhipjoint
     direction -0.554414 -0.743062 0.374812   
     length 2.4371  
     axis 0 0 0  XYZ 
  end
  begin
     id 7 
     name rfemur
     direction -0.34202 -0.939693 0   
     length 7.47254   
     axis 0 0 -20   XYZ
    dof rx ry rz
    limits (-160.0 20.0)
           (-70.0 70.0)
           (-70.0 60.0)
  end
  begin
     id 8 
     name rtibia
     direction -0.34202 -0.939693 0   
     length 7.65855   
     axis 0 0 -20   XYZ
    dof rx
    limits (-10.0 170.0)
 end
 begin
     id 9 
     name rfoot
     direction -0.133779 -0.367555 0.92033   
     length 2.43006  
     axis -90 -7.62852e-016 -20   XYZ
    dof rx rz
    limits (-45.0 90.0)
           (-20.0 70.0)
  end
  begin
     id 10 
     name rtoes
     direction -1.53563e-011 -4.21889e-011 1   
     length 1.19625   
     axis -90 -7.62852e-016 -20   XYZ
    dof rx
    limits (-90.0 20.0)
  end
  begin
     id 11 
     name lowerback
     direction 0.0249066 0.998043 -0.0573585   
     length 2.08485   
     axis 0 0 0   XYZ
    dof rx ry rz
    limits (-20.0 45.0)
           (-30.0 30.0)
           (-30.0 30.0)
  end
  begin
     id 12 
     name upperback
     direction 0.0237884 0.999673 0.00943178   
     length 2.08515   
     axis 0 0 0   XYZ
    dof rx ry rz
    limits (-20.0 45.0)
           (-30.0 30.0)
           (-30.0 30.0)
  end
  begin
     id 13 
     name thorax
     direction 0.0106671 0.999301 0.0358174   
     length 2.09037   
     axis 0 0 0   XYZ
    dof rx ry rz
    limits (-20.0 45.0)
           (-30.0 30.0)
           (-30.0 30.0)
  end
  begin
     id 14 
     name lowerneck
     direction -0.0580016 0.987052 0.149546   
     length 1.84454   
     axis 0 0 0   XYZ
    dof rx ry rz
    limits (-20.0 45.0)
           (-30.0 30.0)
           (-30.0 30.0)
  end
  begin
     id 15 
     name upperneck
     direction 0.079456 0.981963 -0.171567   
     length 1.88141   
     axis 0 0 0   XYZ
    dof rx ry rz
    limits (-20.0 45.0)
           (-30.0 30.0)
           (-30.0 30.0)
  end
  begin
     id 16
     name head
     direction 0.0262167 0.9967 -0.0768276  
     length 1.89541  
     axis 0 0 0   XYZ
    dof rx ry rz
    limits (-20.0 45.0)
           (-30.0 30.0)
           (-30.0 30.0)
  end
  begin
     id 17 
     name lclavicle
     direction 0.946135 0.322134 -0.0325326  
     length 3.949  
     axis 0 0 0   XYZ
    dof ry rz
    limits (-20.0 10.0)
           (0.0 20.0)
  end
  begin
     id 18 
     name lhumerus
     direction 1 -4.48964e-011 1.94005e-028   
     length 5.10995   
     axis 180 -30 -90   XYZ
    dof rx ry rz
    limits (-60.0 90.0)
           (-90.0 90.0)
           (-90.0 90.0)
  end
  begin
     id 19
     name lradius
     direction 1 -4.48976e-011 2.87852e-027   
     length 3.21207   
     axis 180 -30 -90   XYZ
    dof rx
    limits (-10.0 170.0)
  end
  begin
     id 20
     name lwrist
     direction 1 -4.48963e-011 1.9975e-027   
     length 1.60604   
     axis 2.96054e-016 90 90   XYZ
    dof ry
    limits (-180.0 0.0)
 end
  begin
     id 21 
     name lhand
     direction 1 -4.48919e-011 4.00227e-027   
     length 0.63349   
     axis -2.5488e-015 90 90   XYZ
    dof rx rz
    limits (-90.0 90.0)
           (-45.0 45.0)
  end
  begin
     id 22 
     name lfingers
     direction 1 -4.49037e-011 7.9652e-027   
     length 0.510736   
     axis -5.0975e-015 90 90   XYZ
    dof rx
    limits (0.0 90.0)
  end
  begin
     id 23
     name lthumb
     direction 0.707107 -6.34922e-011 0.707107   
     length 0.733318   
     axis -90 45 -4.48553e-014   XYZ
    dof rx rz
    limits (-45.0 45.0)
           (-45.0 45.0)
  end
  begin
     id 24 
     name rclavicle
     direction -0.940085 0.328911 -0.0897654   
     length 3.93848  
     axis 0 0 0   XYZ 
    dof ry rz
    limits (-10.0 20.0)
           (-20.0 0.0)
  end
  begin
     id 25 
     name rhumerus
     direction -1 -4.48958e-011 3.02044e-027  
     length 5.25109   
     axis 180 30 90   XYZ
    dof rx ry rz
    limits (-90.0 60.0)
           (-90.0 90.0)
           (-90.0 90.0)
  end
  begin
     id 26 
     name rradius
     direction -1 -4.4897e-011 9.78352e-028   
     length 3.28364   
     axis 180 30 90   XYZ
    dof rx
    limits (-10.0 170.0)
  end
  begin
     id 27 
     name rwrist
     direction -1 -4.48943e-011 1.99918e-027   
     length 1.64182   
     axis 2.96054e-016 -90 -90   XYZ
    dof ry
    limits (-180.0 0.0)
  end
  begin
     id 28
     name rhand
     direction -1 -4.49024e-011 3.98478e-027   
     length 0.599745   
     axis -2.5488e-015 -90 -90   XYZ
    dof rx rz
    limits (-90.0 90.0)
           (-45.0 45.0)
  end
  begin
     id 29
     name rfingers
     direction -1 -4.48914e-011 8.00621e-027   
     length 0.48353   
     axis -5.0975e-015 -90 -90   XYZ
    dof rx
    limits (0.0 90.0)
  end
  begin
     id 30
     name rthumb
     direction -0.707107 -6.34992e-011 0.707107   
     length 0.694255   
     axis -90 -45 4.48553e-014   XYZ
    dof rx rz
    limits (-45.0 45.0)
           (-45.0 45.0)
  end
:hierarchy
  begin
    root lhipjoint rhipjoint lowerback
    lhipjoint lfemur
    lfemur ltibia
    ltibia lfoot
    lfoot ltoes
    rhipjoint rfemur
    rfemur rtibia
    rtibia rfoot
    rfoot rtoes
    lowerback upperback
    upperback thorax
    thorax lowerneck lclavicle rclavicle
    lowerneck upperneck
    upperneck head
    lclavicle lhumerus
    lhumerus lradius
    lradius lwrist
    lwrist lhand lthumb
    lhand lfingers
    rclavicle rhumerus
    rhumerus rradius
    rradius rwrist
    rwrist rhand rthumb
    rhand rfingers
  end

#!OML:ASF E:\CV Data\Top Level 1\Subject 1\Session 1\player.ASF
:FULLY-SPECIFIED
:DEGREES
1
root 6.35596 17.2368 -8.63815 82.6333 -86.2169 -79.5374
lowerback 1.29306 1.75039 2.55651
upperback -2.14747 2.42819 2.7206
thorax -2.94466 1.16553 1.27414
lowerneck -17.0955 4.53963 -4.89403
upperneck 21.1962 6.69876 3.54442
head 9.1841 3.07848 2.8611
rclavicle -1.0666e-014 7.95139e-016
rhumerus -44.5963 40.3944 -106.419
rradius 92.4823
rwrist -6.32932
rhand -28.2893 24.6209
rfingers 7.12502
rthumb -1.66534 -5.35234
lclavicle -1.0666e-014 7.95139e-016
lhumerus -45.9059 -34.9154 112.673
lradius 86.9125
lwrist 2.39888
lhand -26.8686 8.2988
lfingers 7.12502
lthumb -0.293152 38.2783
rfemur -17.306 5.45012 26.5555
rtibia 39.0801
rfoot -23.6545 -6.5314
rtoes 12.5027
lfemur -14.8117 0.379633 -15.8619
ltibia 36.0848
lfoot -18.7588 7.93979
ltoes 0.569568
2
root 6.35693 17.2366 -8.63762 83.1718 -86.2213 -80.0762
lowerback 1.30025 1.74291 2.5139
upperback -2.12744 2.4172 2.75021
thorax -2.93103 1.16147 1.32885
lowerneck -17.0214 4.55826 -4.94276
upperneck 20.9671 6.7269 3.58233
head 9.08632 3.0998 2.87485
rclavicle -2.39598e-014 -2.78299e-015
rhumerus -44.6155 40.3851 -106.393
rradius 92.5335
rwrist -6.37079
rhand -28.3241 24.6445
rfingers 7.12502
rthumb -1.6989 -5.3285
lclavicle -2.39598e-014 -2.78299e-015
lhumerus -45.8664 -34.876 112.692
lradius 86.9382
lwrist 2.40282
lhand -27.0885 8.47484
lfingers 7.12502
lthumb -0.505532 38.454
rfemur -17.3116 5.45692 26.5576
rtibia 39.079
rfoot -23.6344 -6.53125
rtoes 12.4345
lfemur -14.8098 0.376313 -15.8603
ltibia 36.0926
lfoot -18.7678 7.96195
ltoes 0.62129
3
root 6.35776 17.2365 -8.6373 83.5204 -86.2073 -80.4118
lowerback 1.31731 1.73726 2.5293
upperback -2.12945 2.4109 2.75659
thorax -2.94235 1.15786 1.3265
lowerneck -16.9713 4.56322 -4.97188
upperneck 20.801 6.72832 3.63379
head 9.01642 3.10963 2.88986
rclavicle -2.90101e-015 1.11319e-014
rhumerus -44.671 40.3337 -106.425
rradius 92.5656
rwrist -6.39649
rhand -28.3281 24.664
rfingers 7.12502
rthumb -1.70278 -5.30894
lclavicle -2.90101e-015 1.11319e-014
lhumerus -45.9363 -34.9375 112.731
lradius 87.0374
lwrist 2.48818
lhand -26.9906 8.38249
lfingers 7.12502
lthumb -0.411038 38.3618
rfemur -17.3294 5.45276 26.5729
rtibia 39.0756
rfoot -23.6357 -6.49776
rtoes 12.437
lfemur -14.8306 0.456163 -15.8417
ltibia 36.0946
lfoot -18.7664 7.91746
ltoes 0.502865
4
root 6.35848 17.2373 -8.63631 83.9055 -86.2122 -80.7815
lowerback 1.33515 1.74254 2.53489
upperback -2.14044 2.41921 2.75198
thorax -2.96339 1.16161 1.31762
lowerneck -16.9575 4.56319 -4.987
upperneck 20.7157 6.72511 3.66573
head 8.98268 3.11349 2.89942
rclavicle -2.06115e-014 7.95139e-016
rhumerus -44.7379 40.2748 -106.459
rradius 92.5973
rwrist -6.46145
rhand -28.3296 24.6667
rfingers 7.12502
rthumb -1.70424 -5.3062
lclavicle -2.06115e-014 7.95139e-016
lhumerus -45.9683 -35.0097 112.719
lradius 87.104
lwrist 2.61366
lhand -27.0934 8.5572
lfingers 7.12502
lthumb -0.510259 38.5363
rfemur -17.3494 5.46694 26.564
rtibia 39.0719
rfoot -23.6225 -6.48028
rtoes 12.4594
lfemur -14.843 0.407341 -15.8498
ltibia 36.0939
lfoot -18.7544 7.975
ltoes 0.574886
5
root 6.35926 17.2377 -8.63569 84.3041 -86.2093 -81.1639
lowerback 1.35209 1.74132 2.53555
upperback -2.15031 2.41869 2.75747
thorax -2.98337 1.16112 1.32226
lowerneck -16.9393 4.56595 -5.00166
upperneck 20.6196 6.72695 3.69143
head 8.94452 3.11935 2.90685
rclavicle 2.60967e-014 4.92986e-014
rhumerus -44.8087 40.2333 -106.5
rradius 92.627
rwrist -6.53024
rhand -28.398 24.7232
rfingers 7.12502
rthumb -1.77032 -5.24917
lclavicle 2.60967e-014 4.92986e-014
lhumerus -46.008 -35.0365 112.746
lradius 87.1552
lwrist 2.69381
lhand -27.1077 8.61107
lfingers 7.12502
lthumb -0.524126 38.5902
rfemur -17.37 5.47194 26.5663
rtibia 39.0669
rfoot -23.6107 -6.45903
rtoes 12.4646
lfemur -14.8588 0.408376 -15.8462
ltibia 36.0928
lfoot -18.747 7.99731
ltoes 0.558302
6
root 6.35997 17.2383 -8.63511 84.7147 -86.2049 -81.5546
lowerback 1.36797 1.74085 2.53859
upperback -2.16578 2.41935 2.76206
thorax -3.00841 1.16107 1.32456
lowerneck -16.9363 4.56663 -5.00355
upperneck 20.5611 6.7264 3.70246
head 8.92335 3.12217 2.90878
rclavicle -2.14687e-014 -1.39149e-014
rhumerus -44.8893 40.1948 -106.555
rradius 92.6498
rwrist -6.6115
rhand -28.4952 24.7941
rfingers 7.12502
rthumb -1.86413 -5.17745
lclavicle -2.14687e-014 -1.39149e-014
lhumerus -46.0528 -35.0449 112.793
lradius 87.1848
lwrist 2.76136
lhand -27.0887 8.64774
lfingers 7.12502
lthumb -0.505748 38.6269
rfemur -17.394 5.47847 26.5698
rtibia 39.0609
rfoot -23.5993 -6.4369
rtoes 12.4796
lfemur -14.8758 0.411046 -15.8414
ltibia 36.0866
lfoot -18.7353 8.02342
ltoes 0.520571
7
root 6.36059 17.239 -8.63448 85.1439 -86.2015 -81.9631
lowerback 1.38149 1.74124 2.53953
upperback -2.18351 2.42104 2.76779
thorax -3.0346 1.16157 1.32921
lowerneck -16.9462 4.56488 -4.99983
upperneck 20.5362 6.7236 3.70394
head 8.91679 3.1222 2.90791
rclavicle 1.54866e-014 9.93923e-015
rhumerus -44.9731 40.1618 -106.613
rradius 92.6659
rwrist -6.69894
rhand -28.6025 24.8601
rfingers 7.12502
rthumb -1.96778 -5.11061
lclavicle 1.54866e-014 9.93923e-015
lhumerus -46.093 -35.0278 112.858
lradius 87.1867
lwrist 2.80731
lhand -27.0368 8.67074
lfingers 7.12502
lthumb -0.455586 38.65
rfemur -17.4179 5.49021 26.5719
rtibia 39.0543
rfoot -23.5883 -6.41781
rtoes 12.4993
lfemur -14.8928 0.409294 -15.8382
ltibia 36.0809
lfoot -18.7237 8.05749
ltoes 0.487907
8
root 6.3611 17.2396 -8.63382 85.5873 -86.197 -82.3856
lowerback 1.39216 1.74285 2.54209
upperback -2.20254 2.4243 2.77378
thorax -3.06049 1.16279 1.33324
lowerneck -16.9656 4.55956 -4.99289
upperneck 20.5393 6.7164 3.70038
head 8.92217 3.11894 2.90559
rclavicle -2.57116e-014 -1.86858e-014
rhumerus -45.0553 40.1311 -106.671
rradius 92.6746
rwrist -6.78468
rhand -28.7081 24.9148
rfingers 7.12502
rthumb -2.06978 -5.05492
lclavicle -2.57116e-014 -1.86858e-014
lhumerus -46.1311 -34.9965 112.938
lradius 87.1687
lwrist 2.83089
lhand -26.957 8.6833
lfingers 7.12502
lthumb -0.378581 38.6627
rfemur -17.4408 5.50586 26.5753
rtibia 39.047
rfoot -23.5791 -6.40222
rtoes 12.5244
lfemur -14.909 0.413469 -15.8339
ltibia 36.0739
lfoot -18.7128 8.08995
ltoes 0.440863
9
root 6.3615 17.2401 -8.63312 86.0418 -86.1946 -82.8212
lowerback 1.40001 1.74521 2.54362
upperback -2.22087 2.42839 2.77991
thorax -3.08411 1.16447 1.33804
lowerneck -16.9902 4.55194 -4.99076
upperneck 20.5646 6.70702 3.69842
head 8.936 3.11373 2.90524
rclavicle -1.32502e-014 -2.5842e-014
rhumerus -45.1312 40.1037 -106.725
rradius 92.6765
rwrist -6.86283
rhand -28.792 24.9466
rfingers 7.12502
rthumb -2.15078 -5.02233
lclavicle -1.32502e-014 -2.5842e-014
lhumerus -46.1598 -34.9509 113.022
lradius 87.1309
lwrist 2.83306
lhand -26.8757 8.70086
lfingers 7.12502
lthumb -0.29999 38.6804
rfemur -17.4609 5.52459 26.576
rtibia 39.0398
rfoot -23.5725 -6.38736
rtoes 12.5538
lfemur -14.9221 0.423506 -15.8318
ltibia 36.066
lfoot -18.704 8.11637
ltoes 0.401852
10
root 6.36183 17.2406 -8.63249 86.5033 -86.1932 -83.2642
lowerback 1.4032 1.74775 2.54355
upperback -2.23752 2.4324 2.78689
thorax -3.10348 1.16621 1.34479
lowerneck -17.018 4.54309 -4.99529
upperneck 20.6048 6.69677 3.70067
head 8.95513 3.1076 2.9079
rclavicle 3.75144e-014 4.05521e-014
rhumerus -45.1944 40.0796 -106.767
rradius 92.6715
rwrist -6.92682
rhand -28.8409 24.9512
rfingers 7.12502
rthumb -2.19805 -5.01721
lclavicle 3.75144e-014 4.05521e-014
lhumerus -46.1791 -34.912 113.094
lradius 87.091
lwrist 2.82996
lhand -26.7979 8.73105
lfingers 7.12502
lthumb -0.224908 38.7107
rfemur -17.4798 5.54675 26.5758
rtibia 39.0324
rfoot -23.5672 -6.37538
rtoes 12.581
lfemur -14.935 0.444688 -15.8289
ltibia 36.0582
lfoot -18.7 8.1264
ltoes 0.392471
